# xmcd
#
# Track frame offsets:
#	150
#	2623
#	14938
#	25075
#	40955
#	45390
#	57311
#	73246
#	88521
#	103302
#	119887
#	134116
#	149767
#	163135
#	177473
#	190577
#	206397
#	217424
#	226554
#
# Disc length: 3164 seconds
#
# Revision: 1
# Processed by: cddbd v1.5.2PL0 Copyright (c) Steve Scherf et al.
# Submitted via: EZCDAudioConverter 2.1.7.1
#
DISCID=270c5a13
DTITLE=V/A - Fallin' Off The Reel V1
DYEAR=1900
DGENRE=Funk
TTITLE0=Quincy Bright - Call It Static
TTITLE1=Bama and The Family - Feeling Good
TTITLE2=Asiko - Drums Of Asiko
TTITLE3=Bronx River Pkwy. - Deixa Pra La
TTITLE4=Bronx River Pkwy. - Lima Blues
TTITLE5=Bronx River Pkwy. - Mas Y Mas
TTITLE6=Timothy McNealy - K.C. Stomp
TTITLE7=Timothy McNealy - Easy, Easy, Easy
TTITLE8=Lee Fields and The Expressions - Do You Love Me
TTITLE9=Lee Fields and The Expressions - Honey Dove
TTITLE10=El Michels Affair - Creation
TTITLE11=El Michels Affiar - Behind The Blue Curtains
TTITLE12=The Expressions - These Moments
TTITLE13=The Expressions - Money I$ King
TTITLE14=El Michels Affair - C.R.E.A.M.
TTITLE15=El Michels Affair - Glaciers Of Ice
TTITLE16=Funky Music Machine - Gotta Clean Up The World (Part 1)
TTITLE17=Funky Music Machine - Gotta Clean Up The World (Part 2)
TTITLE18=The Evil D's - So Glad
EXTD=
EXTT0=
EXTT1=
EXTT2=
EXTT3=
EXTT4=
EXTT5=
EXTT6=
EXTT7=
EXTT8=
EXTT9=
EXTT10=
EXTT11=
EXTT12=
EXTT13=
EXTT14=
EXTT15=
EXTT16=
EXTT17=
EXTT18=
PLAYORDER=
